<svg xmlns="http://www.w3.org/2000/svg" viewBox="0 0 511 447"><title>icon</title><path d="M481,45.6A13.79,13.79,0,0,0,467.2,32H44c-7.5,0-13,6.1-13,13.6V61H481Z" transform="translate(-1 -32)" fill="#7e9fc3"/><path d="M403.5,313a73.22,73.22,0,0,1-24.3,19.3c-9.9,5-21.7,7.6-35.4,7.6a102,102,0,0,1-30.4-4.3,72.5,72.5,0,0,1-24.6-13,62.39,62.39,0,0,1-16.9-21.1c-4.2-8.5-6.5-19.4-6.9-29.4h36.7c1.1,12,5.3,21.3,12.5,27.8s16.9,9.6,29,9.6a45.91,45.91,0,0,0,19.6-3.9,34.24,34.24,0,0,0,13-10.7,42.07,42.07,0,0,0,7.1-15.6A93.32,93.32,0,0,0,385,261H183.1c-1.6,1-3.1,1.8-4.7,2.8-6.4,4.1-12.4,8.1-17.9,12.1a106.64,106.64,0,0,0-14.3,12.9,36.11,36.11,0,0,0-8.4,14.2H246v32H93.7c.2-19,4.7-34.6,13.5-48.5,6-9.5,13.4-18.5,22.3-25.5H31V465.4c0,7.5,5.6,13.6,13.1,13.6H467.3a13.61,13.61,0,0,0,13.6-13.6V261H421.5a101.5,101.5,0,0,1-4.3,26.1A73.45,73.45,0,0,1,403.5,313ZM125,427H93V385h30v8H102v9h20v6H102v12h23Zm54,0h-8.1l-18.7-30H152v30h-6V385h6.7l18.8,31h.5V385h7Zm53-34H219v34h-9V393H198v-8h34Zm46.1,34c-.5,0-.9-2-.9-3s-.1-2.2-.1-3.2a34.75,34.75,0,0,0-.3-4.9,8.07,8.07,0,0,0-1.3-3.4,5.8,5.8,0,0,0-2.5-2.4,11.11,11.11,0,0,0-4.1-1.1H258v18h-6V385h18.7c4.5,0,7.9,1.3,10.2,3.3a10.57,10.57,0,0,1,3.4,8.3,11.28,11.28,0,0,1-.9,4.9,11,11,0,0,1-2,3.2,8.53,8.53,0,0,1-2.5,1.7c-.7.3-1.9.6-1.9.7v.1c0,.1,1.5.3,2.2.6a5.85,5.85,0,0,1,2.1,1.5,8.22,8.22,0,0,1,1.6,2.6,11.62,11.62,0,0,1,.6,4,34.77,34.77,0,0,0,.6,6.7c.4,2,.9,4.3,1.7,4.3l-7.7.1Zm34.9,0h-7V385h7Zm54,0H338V385h29v8H344v9h21v6H344v12h23Zm51.6-28h-7.2c-.2-4-1.1-5.1-2.7-6.2a10.86,10.86,0,0,0-6.2-1.9,11.54,11.54,0,0,0-2.6.1,8.47,8.47,0,0,0-2.4.8,5.48,5.48,0,0,0-1.8,1.6,4.21,4.21,0,0,0-.7,2.6,4.29,4.29,0,0,0,1.4,3.4,10.59,10.59,0,0,0,3.5,1.9,13.73,13.73,0,0,1,1.8.5c1.1.3,2.2.6,3.5.9s2.6.7,3.8,1,2.1.6,2.7.7a12.65,12.65,0,0,1,3.5,1.7,11.85,11.85,0,0,1,2.5,2.5,8.47,8.47,0,0,1,1.5,3,11.85,11.85,0,0,1,.5,3.2,12,12,0,0,1-1.4,5.9,11.83,11.83,0,0,1-3.7,4,17.52,17.52,0,0,1-5.2,2.3,24.58,24.58,0,0,1-6,.7,23.91,23.91,0,0,1-6.6-.9,17,17,0,0,1-5.4-2.6,13.93,13.93,0,0,1-3.7-4.6,13.76,13.76,0,0,1-1.4-6.6h7.2a12.41,12.41,0,0,0,.8,4.1,8.55,8.55,0,0,0,2.2,2.8,12.62,12.62,0,0,0,3.3,1.6,17,17,0,0,0,4.1.5,15,15,0,0,0,4-.5,8.56,8.56,0,0,0,2.7-1.4,4.81,4.81,0,0,0,1.5-2,5.93,5.93,0,0,0,.5-2.3,5.05,5.05,0,0,0-1.1-3.5,6.85,6.85,0,0,0-2.3-1.6q-2.25-.75-5.1-1.5c-1.9-.5-4.3-1.1-7.2-1.9a18.25,18.25,0,0,1-4.4-1.8,9.81,9.81,0,0,1-2.8-2.5,8.93,8.93,0,0,1-1.5-2.9,11.24,11.24,0,0,1-.4-3.2,10.29,10.29,0,0,1,1.3-5.4,12.41,12.41,0,0,1,3.4-3.8,15.07,15.07,0,0,1,4.8-2.2,20.24,20.24,0,0,1,5.5-.7,24.27,24.27,0,0,1,6.1.8,15.64,15.64,0,0,1,5,2.5,14.54,14.54,0,0,1,3.4,4.7C418.2,394.4,418.6,395,418.6,399Z" transform="translate(-1 -32)" fill="#7e9fc3"/><path d="M274.9,392.7a6.32,6.32,0,0,0-2.3-1.2,12.82,12.82,0,0,0-2.7-.5H258v13h12.1c2.3,0,4-.3,5.2-1.4a6,6,0,0,0,1.8-4.8,6.84,6.84,0,0,0-.6-3.1A4.6,4.6,0,0,0,274.9,392.7Z" transform="translate(-1 -32)" fill="#7e9fc3"/><path d="M510.9,81.5c1.1-6.1-5.1-10.7-13.7-10.7l-481.6.6C7,71.5.6,76,1.8,82.1L30.2,249H147.6c5.6-4,11.5-6.8,17.7-10.1a173.88,173.88,0,0,0,21.2-13.2,75.66,75.66,0,0,0,16-15.3,29.82,29.82,0,0,0,6.1-19,38.65,38.65,0,0,0-2-10.6,26.66,26.66,0,0,0-6.5-10.5,37.07,37.07,0,0,0-12.8-8.1c-5.4-2.2-12.4-3.3-20.9-3.3-7.8,0-14.3,1.2-19.2,3.6a27.31,27.31,0,0,0-11.4,9.7,36.85,36.85,0,0,0-5.3,14.6,76.67,76.67,0,0,0-.6,18.1h-38c-1.4-10.2-1-19.6,1.4-28.2a50.75,50.75,0,0,1,13.1-22.5c6.4-6.3,14.7-11.3,24.7-14.9s22.1-5.4,35.9-5.4c15,0,27.7,1.8,38,5.5s18.5,8.3,24.8,13.9a48.22,48.22,0,0,1,13.3,18.3,53.41,53.41,0,0,1,4,18.8,46.44,46.44,0,0,1-4,20,62,62,0,0,1-11.2,16.4,105.07,105.07,0,0,1-15.8,13.7c-4.3,3.1-8.6,6.6-13.1,8.6H383.8c-.2-1-.5-2.7-.9-4a30.84,30.84,0,0,0-6.6-12.2,33.63,33.63,0,0,0-12.9-8.4c-5.4-2.1-11.9-3.1-19.3-3.1a68.74,68.74,0,0,0-22.4,3.6,26,26,0,0,0-15.4,13.3h-37L295.9,137l127-.1-3.2,26.9-95.1.1-14.1,47,.6.6c5.3-4.6,11.9-8,20-10.4a83.16,83.16,0,0,1,23.8-3.5c11.6,0,21.9,1.5,30.8,4.6s16,7.4,21.6,12.9a44.62,44.62,0,0,1,11.6,19.5A56.92,56.92,0,0,1,421,249h60Z" transform="translate(-1 -32)" fill="#6d88a8"/><path d="M13.9,218C6.4,218,1,223.6,1,231.1v50c0,7.5,5.4,13,12.9,13H20v-76H13.9Z" transform="translate(-1 -32)" fill="#a4c0de"/><path d="M497.6,218H490v76h7.6c7.5,0,14.4-5.5,14.4-13V231C512,223.6,505.1,218,497.6,218Z" transform="translate(-1 -32)" fill="#a4c0de"/></svg>